<svg width="1170" height="1702" viewBox="0 0 1170 1702" fill="none" xmlns="http://www.w3.org/2000/svg">
<g clip-path="url(#clip0)">
<path d="M962.802 244.595C840.313 209.864 709.221 159.662 599.719 80.3908L503.861 10.9986C483.553 -3.70268 456.019 -3.36933 435.964 11.8069C415.983 27.0166 408.324 53.4886 417.073 77.0042L728.72 914.637L828.321 1046.14L855.224 1050.63L882.052 1055.11L903.898 1058.76L589.068 212.571C699.987 279.861 823.67 323.544 931.71 354.214C984.784 369.249 1026.25 407.479 1045.45 459.091C1078.31 547.408 1033.2 645.985 944.881 678.844C915.372 689.823 900.378 722.586 911.357 752.095C922.336 781.604 955.098 796.599 984.608 785.619C1131.79 730.859 1206.99 566.547 1152.23 419.364C1120.71 334.641 1049.93 269.332 962.802 244.595Z" fill="white"/>
<path d="M468.937 764C211.37 764 0 975.37 0 1232.94C0 1490.5 211.37 1701.87 468.937 1701.87C726.504 1701.87 937.874 1490.5 937.874 1232.94C937.874 975.37 726.504 764 468.937 764ZM468.937 873.907C630.933 873.907 769.709 984.245 813.293 1132.32C810.798 1125.97 806.044 1120.48 799.364 1117.4C723.641 1082.35 603.343 1040.6 468.937 1040.6C334.532 1040.6 214.233 1082.35 138.51 1117.4C131.83 1120.48 127.076 1125.97 124.582 1132.32C168.165 984.245 306.941 873.907 468.937 873.907ZM117.005 1303.68C119.758 1314.01 128.421 1322.21 139.664 1323.82L205.68 1333C289.748 1344.99 356.883 1412.13 368.878 1496.19L378.055 1562.21C379.447 1571.95 385.897 1579.56 394.279 1583.26C255.992 1553.6 145.032 1442.58 117.005 1303.68ZM468.937 1315.37C423.483 1315.37 386.507 1278.39 386.507 1232.94C386.507 1187.48 423.483 1150.51 468.937 1150.51C514.391 1150.51 551.367 1187.48 551.367 1232.94C551.367 1278.39 514.391 1315.37 468.937 1315.37ZM543.595 1583.26C551.977 1579.56 558.427 1571.95 559.819 1562.21L568.997 1496.19C580.991 1412.12 648.126 1344.99 732.194 1333L798.21 1323.82C809.453 1322.21 818.116 1314.01 820.871 1303.68C792.843 1442.58 681.882 1553.6 543.595 1583.26Z" fill="white"/>
</g>
<defs>
<clipPath id="clip0">
<rect width="1170" height="1702" fill="white"/>
</clipPath>
</defs>
</svg>
